%FSDAX24Y24*%
%MOIN*%
%SFA1B1*%

%IPPOS*%
%AMD13*
4,1,8,-0.017600,0.042500,-0.042500,0.017600,-0.042500,-0.017600,-0.017600,-0.042500,0.017600,-0.042500,0.042500,-0.017600,0.042500,0.017600,0.017600,0.042500,-0.017600,0.042500,0.0*
%
%ADD10C,0.010000*%
%ADD11R,0.037400X0.035430*%
%ADD12R,0.064960X0.023620*%
G04~CAMADD=13~4~0.0~0.0~850.0~850.0~0.0~249.0~0~0.0~0.0~0.0~0.0~0~0.0~0.0~0.0~0.0~0~0.0~0.0~0.0~45.0~850.0~850.0*
%ADD13D13*%
%ADD14C,0.118110*%
%ADD15C,0.059050*%
%ADD16C,0.018000*%
%LN32pinffc_breakout_pcb-1*%
%LPD*%
G36*
X052500Y042196D02*
X052562Y042170D01*
X052617Y042133*
X052665Y042086*
X052702Y042030*
X052727Y041969*
X052740Y041903*
Y041870*
Y024862*
Y024828*
X052727Y024763*
X052702Y024701*
X052665Y024646*
X052617Y024598*
X052562Y024561*
X052500Y024536*
X052435Y024523*
X041974*
X041908Y024536*
X041847Y024561*
X041791Y024598*
X041744Y024646*
X041707Y024701*
X041681Y024763*
X041668Y024828*
Y024862*
Y041870*
Y041903*
X041681Y041969*
X041707Y042030*
X041744Y042086*
X041791Y042133*
X041847Y042170*
X041908Y042196*
X041974Y042209*
X052435*
X052500Y042196*
G37*
%LN32pinffc_breakout_pcb-2*%
%LPC*%
G36*
X043759Y032151D02*
X043612D01*
X043566Y032132*
X043547Y032086*
Y031949*
X043759*
Y032151*
G37*
G36*
X043986D02*
X043839D01*
Y031949*
X044051*
Y032086*
X044032Y032132*
X043986Y032151*
G37*
G36*
X045972Y032304D02*
X045882Y032293D01*
X045798Y032258*
X045726Y032202*
X045670Y032130*
X045636Y032046*
X045624Y031956*
X045636Y031866*
X045670Y031782*
X045726Y031710*
X045798Y031655*
X045882Y031620*
X045972Y031608*
X046062Y031620*
X046146Y031655*
X046218Y031710*
X046274Y031782*
X046303Y031854*
X046523*
X046562Y031862*
X046595Y031884*
X046695Y031984*
X049719*
Y031968*
X049735Y031930*
X049773Y031914*
X050423*
X050461Y031930*
X050477Y031968*
Y032204*
X050461Y032243*
X050423Y032258*
X049773*
X049735Y032243*
X049719Y032204*
Y032188*
X046653*
X046614Y032180*
X046581Y032158*
X046481Y032058*
X046303*
X046274Y032130*
X046218Y032202*
X046146Y032258*
X046062Y032293*
X045972Y032304*
G37*
G36*
X043759Y031869D02*
X043547D01*
Y031732*
X043566Y031686*
X043612Y031667*
X043759*
Y031869*
G37*
G36*
X044051D02*
X043839D01*
Y031667*
X043986*
X044032Y031686*
X044051Y031732*
Y031869*
G37*
G36*
X048651Y032652D02*
X048002D01*
X047963Y032636*
X047947Y032598*
Y032558*
X045760*
X045721Y032550*
X045688Y032528*
X045315Y032155*
X045250Y032161*
X045218Y032202*
X045146Y032258*
X045062Y032293*
X044972Y032304*
X044882Y032293*
X044798Y032258*
X044726Y032202*
X044670Y032130*
X044636Y032046*
X044624Y031956*
X044636Y031866*
X044670Y031782*
X044726Y031710*
X044798Y031655*
X044882Y031620*
X044972Y031608*
X045062Y031620*
X045146Y031655*
X045218Y031710*
X045274Y031782*
X045308Y031866*
X045309Y031868*
X045332Y031884*
X045803Y032354*
X047950*
X047963Y032323*
X048002Y032308*
X048651*
X048689Y032323*
X048705Y032362*
Y032598*
X048689Y032636*
X048651Y032652*
G37*
G36*
X043996Y033902D02*
X043941Y033891D01*
X043895Y033860*
X043864Y033814*
X043853Y033759*
X043861Y033717*
X043727Y033583*
X043705Y033550*
X043697Y033511*
Y033479*
X043612*
X043573Y033463*
X043558Y033425*
Y033070*
X043573Y033032*
X043612Y033016*
X043986*
X044024Y033032*
X044040Y033070*
Y033425*
X044024Y033463*
X043986Y033479*
X043976*
X043957Y033525*
X044068Y033635*
X044072Y033642*
X044097Y033658*
X044127Y033705*
X044138Y033759*
X044127Y033814*
X044097Y033860*
X044050Y033891*
X043996Y033902*
G37*
G36*
X046503Y033558D02*
X045472D01*
X045433Y033550*
X045400Y033528*
X045134Y033263*
X045062Y033293*
X044972Y033305*
X044882Y033293*
X044798Y033258*
X044726Y033203*
X044670Y033130*
X044636Y033046*
X044624Y032956*
X044636Y032866*
X044670Y032782*
X044726Y032710*
X044798Y032655*
X044882Y032620*
X044972Y032608*
X045062Y032620*
X045146Y032655*
X045218Y032710*
X045274Y032782*
X045308Y032866*
X045320Y032956*
X045308Y033046*
X045278Y033119*
X045514Y033354*
X046461*
X046620Y033195*
X046653Y033173*
X046692Y033165*
X047947*
Y033149*
X047963Y033111*
X048002Y033095*
X048651*
X048689Y033111*
X048705Y033149*
Y033385*
X048689Y033424*
X048651Y033440*
X048002*
X047963Y033424*
X047947Y033385*
Y033369*
X046735*
X046576Y033528*
X046543Y033550*
X046503Y033558*
G37*
G36*
X045972Y033305D02*
X045882Y033293D01*
X045798Y033258*
X045726Y033203*
X045670Y033130*
X045636Y033046*
X045624Y032956*
X045626Y032938*
X045246Y032558*
X044632*
X044540Y032650*
X044507Y032672*
X044468Y032680*
X044040*
Y032755*
X044024Y032794*
X043986Y032810*
X043612*
X043573Y032794*
X043558Y032755*
Y032401*
X043573Y032363*
X043612Y032347*
X043986*
X044024Y032363*
X044040Y032401*
Y032476*
X044426*
X044518Y032384*
X044551Y032362*
X044590Y032354*
X045289*
X045328Y032362*
X045361Y032384*
X045689Y032712*
X045726Y032710*
X045798Y032655*
X045882Y032620*
X045972Y032608*
X046062Y032620*
X046146Y032655*
X046218Y032710*
X046274Y032782*
X046303Y032854*
X046509*
X046561Y032801*
X046594Y032779*
X046633Y032772*
X049719*
Y032755*
X049735Y032717*
X049773Y032701*
X050423*
X050461Y032717*
X050477Y032755*
Y032992*
X050461Y033030*
X050423Y033046*
X049773*
X049735Y033030*
X049719Y032992*
Y032976*
X046676*
X046623Y033028*
X046590Y033050*
X046551Y033058*
X046303*
X046274Y033130*
X046218Y033203*
X046146Y033258*
X046062Y033293*
X045972Y033305*
G37*
G36*
X042853Y033089D02*
X042403D01*
Y032917*
X042422Y032871*
X042635Y032659*
X042681Y032640*
X042853*
Y033089*
G37*
G36*
X043383D02*
X042933D01*
Y032640*
X043106*
X043152Y032659*
X043364Y032871*
X043383Y032917*
Y033089*
G37*
G36*
X048651Y031865D02*
X048002D01*
X047963Y031849*
X047947Y031811*
Y031794*
X046771*
X046732Y031787*
X046699Y031765*
X046493Y031558*
X045472*
X045433Y031550*
X045400Y031528*
X045134Y031263*
X045062Y031293*
X044972Y031305*
X044882Y031293*
X044798Y031258*
X044726Y031203*
X044670Y031130*
X044636Y031046*
X044624Y030956*
X044636Y030866*
X044670Y030782*
X044726Y030710*
X044798Y030655*
X044882Y030620*
X044972Y030608*
X045062Y030620*
X045146Y030655*
X045218Y030710*
X045274Y030782*
X045308Y030866*
X045320Y030956*
X045308Y031046*
X045278Y031119*
X045514Y031354*
X046535*
X046574Y031362*
X046607Y031384*
X046813Y031591*
X047947*
Y031574*
X047963Y031536*
X048002Y031520*
X048651*
X048689Y031536*
X048705Y031574*
Y031811*
X048689Y031849*
X048651Y031865*
G37*
G36*
Y028715D02*
X048002D01*
X047963Y028699*
X047947Y028661*
Y028645*
X047483*
X047444Y028637*
X047411Y028615*
X046354Y027558*
X045616*
X045577Y027550*
X045544Y027528*
X045218Y027202*
X045146Y027258*
X045062Y027293*
X044972Y027304*
X044882Y027293*
X044798Y027258*
X044726Y027202*
X044670Y027130*
X044636Y027046*
X044624Y026956*
X044636Y026866*
X044670Y026782*
X044726Y026710*
X044798Y026655*
X044882Y026620*
X044972Y026608*
X045062Y026620*
X045146Y026655*
X045218Y026710*
X045274Y026782*
X045308Y026866*
X045320Y026956*
X045313Y027009*
X045658Y027354*
X046397*
X046436Y027362*
X046469Y027384*
X047525Y028441*
X047947*
Y028425*
X047963Y028386*
X048002Y028371*
X048651*
X048689Y028386*
X048705Y028425*
Y028661*
X048689Y028699*
X048651Y028715*
G37*
G36*
X050423Y029109D02*
X049773D01*
X049735Y029093*
X049719Y029055*
Y029039*
X047126*
X047087Y029031*
X047053Y029009*
X046245Y028201*
X046218Y028203*
X046146Y028258*
X046062Y028293*
X045972Y028305*
X045882Y028293*
X045798Y028258*
X045726Y028203*
X045670Y028130*
X045636Y028046*
X045624Y027956*
X045636Y027866*
X045670Y027782*
X045726Y027710*
X045798Y027655*
X045882Y027620*
X045972Y027608*
X046062Y027620*
X046146Y027655*
X046218Y027710*
X046274Y027782*
X046308Y027866*
X046320Y027956*
X046317Y027983*
X047168Y028835*
X049719*
Y028818*
X049735Y028780*
X049773Y028764*
X050423*
X050461Y028780*
X050477Y028818*
Y029055*
X050461Y029093*
X050423Y029109*
G37*
G36*
Y028321D02*
X049773D01*
X049735Y028306*
X049719Y028267*
Y028251*
X047736*
X047697Y028243*
X047664Y028221*
X046501Y027058*
X046303*
X046274Y027130*
X046218Y027202*
X046146Y027258*
X046062Y027293*
X045972Y027304*
X045882Y027293*
X045798Y027258*
X045726Y027202*
X045670Y027130*
X045636Y027046*
X045624Y026956*
X045636Y026866*
X045670Y026782*
X045726Y026710*
X045798Y026655*
X045882Y026620*
X045972Y026608*
X046062Y026620*
X046146Y026655*
X046218Y026710*
X046274Y026782*
X046303Y026854*
X046543*
X046582Y026862*
X046615Y026884*
X047778Y028047*
X049719*
Y028031*
X049735Y027993*
X049773Y027977*
X050423*
X050461Y027993*
X050477Y028031*
Y028267*
X050461Y028306*
X050423Y028321*
G37*
G36*
Y027534D02*
X049773D01*
X049735Y027518*
X049719Y027480*
Y027464*
X047933*
X047894Y027456*
X047861Y027434*
X046485Y026058*
X046303*
X046274Y026130*
X046218Y026203*
X046146Y026258*
X046062Y026293*
X045972Y026305*
X045882Y026293*
X045798Y026258*
X045726Y026203*
X045670Y026130*
X045636Y026046*
X045624Y025956*
X045636Y025866*
X045670Y025782*
X045726Y025710*
X045798Y025655*
X045882Y025620*
X045972Y025608*
X046062Y025620*
X046146Y025655*
X046218Y025710*
X046274Y025782*
X046303Y025854*
X046527*
X046566Y025862*
X046599Y025884*
X047975Y027260*
X049719*
Y027244*
X049735Y027205*
X049773Y027190*
X050423*
X050461Y027205*
X050477Y027244*
Y027480*
X050461Y027518*
X050423Y027534*
G37*
G36*
X048651Y027928D02*
X048002D01*
X047963Y027912*
X047947Y027874*
Y027857*
X047834*
X047795Y027850*
X047762Y027828*
X046493Y026558*
X045472*
X045433Y026550*
X045400Y026528*
X045134Y026263*
X045062Y026293*
X044972Y026305*
X044882Y026293*
X044798Y026258*
X044726Y026203*
X044670Y026130*
X044636Y026046*
X044624Y025956*
X044636Y025866*
X044670Y025782*
X044726Y025710*
X044798Y025655*
X044882Y025620*
X044972Y025608*
X045062Y025620*
X045146Y025655*
X045218Y025710*
X045274Y025782*
X045308Y025866*
X045320Y025956*
X045308Y026046*
X045278Y026119*
X045514Y026354*
X046535*
X046574Y026362*
X046607Y026384*
X047876Y027653*
X047947*
Y027637*
X047963Y027599*
X048002Y027583*
X048651*
X048689Y027599*
X048705Y027637*
Y027874*
X048689Y027912*
X048651Y027928*
G37*
G36*
Y029502D02*
X048002D01*
X047963Y029487*
X047947Y029448*
Y029432*
X047126*
X047087Y029424*
X047053Y029402*
X046209Y028558*
X045472*
X045433Y028550*
X045400Y028528*
X045134Y028263*
X045062Y028293*
X044972Y028305*
X044882Y028293*
X044798Y028258*
X044726Y028203*
X044670Y028130*
X044636Y028046*
X044624Y027956*
X044636Y027866*
X044670Y027782*
X044726Y027710*
X044798Y027655*
X044882Y027620*
X044972Y027608*
X045062Y027620*
X045146Y027655*
X045218Y027710*
X045274Y027782*
X045308Y027866*
X045320Y027956*
X045308Y028046*
X045278Y028119*
X045514Y028354*
X046252*
X046291Y028362*
X046324Y028384*
X047168Y029228*
X047947*
Y029212*
X047963Y029174*
X048002Y029158*
X048651*
X048689Y029174*
X048705Y029212*
Y029448*
X048689Y029487*
X048651Y029502*
G37*
G36*
Y031077D02*
X048002D01*
X047963Y031061*
X047947Y031023*
Y031007*
X047027*
X046988Y030999*
X046955Y030977*
X046536Y030558*
X045472*
X045433Y030550*
X045400Y030528*
X045134Y030263*
X045062Y030293*
X044972Y030304*
X044882Y030293*
X044798Y030258*
X044726Y030202*
X044670Y030130*
X044636Y030046*
X044624Y029956*
X044636Y029866*
X044670Y029782*
X044726Y029710*
X044798Y029655*
X044882Y029620*
X044972Y029608*
X045062Y029620*
X045146Y029655*
X045218Y029710*
X045274Y029782*
X045308Y029866*
X045320Y029956*
X045308Y030046*
X045278Y030119*
X045514Y030354*
X046578*
X046617Y030362*
X046650Y030384*
X047069Y030803*
X047947*
Y030787*
X047963Y030749*
X048002Y030733*
X048651*
X048689Y030749*
X048705Y030787*
Y031023*
X048689Y031061*
X048651Y031077*
G37*
G36*
X050423Y031471D02*
X049773D01*
X049735Y031455*
X049719Y031417*
Y031401*
X046850*
X046811Y031393*
X046778Y031371*
X046465Y031058*
X046303*
X046274Y031130*
X046218Y031203*
X046146Y031258*
X046062Y031293*
X045972Y031305*
X045882Y031293*
X045798Y031258*
X045726Y031203*
X045670Y031130*
X045636Y031046*
X045624Y030956*
X045636Y030866*
X045670Y030782*
X045726Y030710*
X045798Y030655*
X045882Y030620*
X045972Y030608*
X046062Y030620*
X046146Y030655*
X046218Y030710*
X046274Y030782*
X046303Y030854*
X046507*
X046546Y030862*
X046580Y030884*
X046892Y031197*
X049719*
Y031181*
X049735Y031142*
X049773Y031127*
X050423*
X050461Y031142*
X050477Y031181*
Y031417*
X050461Y031455*
X050423Y031471*
G37*
G36*
Y030684D02*
X049773D01*
X049735Y030668*
X049719Y030629*
Y030613*
X047126*
X047087Y030606*
X047053Y030583*
X046528Y030058*
X046303*
X046274Y030130*
X046218Y030202*
X046146Y030258*
X046062Y030293*
X045972Y030304*
X045882Y030293*
X045798Y030258*
X045726Y030202*
X045670Y030130*
X045636Y030046*
X045624Y029956*
X045636Y029866*
X045670Y029782*
X045726Y029710*
X045798Y029655*
X045882Y029620*
X045972Y029608*
X046062Y029620*
X046146Y029655*
X046218Y029710*
X046274Y029782*
X046303Y029854*
X046570*
X046609Y029862*
X046643Y029884*
X047168Y030409*
X049719*
Y030393*
X049735Y030355*
X049773Y030339*
X050423*
X050461Y030355*
X050477Y030393*
Y030629*
X050461Y030668*
X050423Y030684*
G37*
G36*
Y029896D02*
X049773D01*
X049735Y029880*
X049719Y029842*
Y029826*
X047126*
X047087Y029818*
X047053Y029796*
X046345Y029088*
X046286Y029100*
X046274Y029130*
X046218Y029203*
X046146Y029258*
X046062Y029293*
X045972Y029305*
X045882Y029293*
X045798Y029258*
X045726Y029203*
X045670Y029130*
X045636Y029046*
X045624Y028956*
X045636Y028866*
X045670Y028782*
X045726Y028710*
X045798Y028655*
X045882Y028620*
X045972Y028608*
X046062Y028620*
X046146Y028655*
X046218Y028710*
X046274Y028782*
X046303Y028854*
X046358*
X046397Y028862*
X046430Y028884*
X047168Y029622*
X049719*
Y029606*
X049735Y029568*
X049773Y029552*
X050423*
X050461Y029568*
X050477Y029606*
Y029842*
X050461Y029880*
X050423Y029896*
G37*
G36*
X048651Y030290D02*
X048002D01*
X047963Y030274*
X047947Y030236*
Y030220*
X047126*
X047087Y030212*
X047053Y030190*
X046422Y029558*
X045472*
X045433Y029550*
X045400Y029528*
X045134Y029263*
X045062Y029293*
X044972Y029305*
X044882Y029293*
X044798Y029258*
X044726Y029203*
X044670Y029130*
X044636Y029046*
X044624Y028956*
X044636Y028866*
X044670Y028782*
X044726Y028710*
X044798Y028655*
X044882Y028620*
X044972Y028608*
X045062Y028620*
X045146Y028655*
X045218Y028710*
X045274Y028782*
X045308Y028866*
X045320Y028956*
X045308Y029046*
X045278Y029119*
X045514Y029354*
X046464*
X046503Y029362*
X046536Y029384*
X047168Y030016*
X047947*
Y030000*
X047963Y029961*
X048002Y029945*
X048651*
X048689Y029961*
X048705Y030000*
Y030236*
X048689Y030274*
X048651Y030290*
G37*
G36*
X046933Y037558D02*
X045472D01*
X045433Y037550*
X045400Y037528*
X045134Y037263*
X045062Y037293*
X044972Y037304*
X044882Y037293*
X044798Y037258*
X044726Y037202*
X044670Y037130*
X044636Y037046*
X044624Y036956*
X044636Y036866*
X044670Y036782*
X044726Y036710*
X044798Y036655*
X044882Y036620*
X044972Y036608*
X045062Y036620*
X045146Y036655*
X045218Y036710*
X045274Y036782*
X045308Y036866*
X045320Y036956*
X045308Y037046*
X045278Y037119*
X045514Y037354*
X046890*
X047900Y036345*
X047933Y036323*
X047947Y036320*
Y036299*
X047963Y036260*
X048002Y036245*
X048651*
X048689Y036260*
X048705Y036299*
Y036535*
X048689Y036573*
X048651Y036589*
X048002*
X047963Y036573*
X047960Y036573*
X047005Y037528*
X046972Y037550*
X046933Y037558*
G37*
G36*
X045972Y038305D02*
X045882Y038293D01*
X045798Y038258*
X045726Y038203*
X045670Y038130*
X045636Y038046*
X045624Y037956*
X045636Y037866*
X045670Y037782*
X045726Y037710*
X045798Y037655*
X045882Y037620*
X045972Y037608*
X046062Y037620*
X046146Y037655*
X046218Y037710*
X046274Y037782*
X046303Y037854*
X046768*
X047884Y036738*
X047917Y036716*
X047956Y036709*
X049719*
Y036692*
X049735Y036654*
X049773Y036638*
X050423*
X050461Y036654*
X050477Y036692*
Y036929*
X050461Y036967*
X050423Y036983*
X049773*
X049735Y036967*
X049719Y036929*
Y036913*
X047998*
X046883Y038028*
X046850Y038050*
X046811Y038058*
X046303*
X046274Y038130*
X046218Y038203*
X046146Y038258*
X046062Y038293*
X045972Y038305*
G37*
G36*
X046720Y038558D02*
X045543D01*
X045504Y038550*
X045471Y038528*
X045177Y038234*
X045146Y038258*
X045062Y038293*
X044972Y038305*
X044882Y038293*
X044798Y038258*
X044726Y038203*
X044670Y038130*
X044636Y038046*
X044624Y037956*
X044636Y037866*
X044670Y037782*
X044726Y037710*
X044798Y037655*
X044882Y037620*
X044972Y037608*
X045062Y037620*
X045146Y037655*
X045218Y037710*
X045274Y037782*
X045308Y037866*
X045320Y037956*
X045308Y038046*
X045299Y038068*
X045585Y038354*
X046678*
X047900Y037132*
X047933Y037110*
X047947Y037107*
Y037086*
X047963Y037048*
X048002Y037032*
X048651*
X048689Y037048*
X048705Y037086*
Y037322*
X048689Y037361*
X048651Y037376*
X048002*
X047963Y037361*
X047960Y037360*
X046792Y038528*
X046759Y038550*
X046720Y038558*
G37*
G36*
X043996Y036264D02*
X043941Y036253D01*
X043895Y036223*
X043864Y036176*
X043853Y036123*
X043727Y035997*
X043705Y035964*
X043697Y035925*
Y035841*
X043612*
X043573Y035825*
X043558Y035787*
Y035433*
X043573Y035394*
X043612Y035378*
X043986*
X044024Y035394*
X044040Y035433*
Y035787*
X044024Y035825*
X043986Y035841*
X043921*
X043909Y035891*
X043997Y035979*
X044050Y035990*
X044097Y036021*
X044127Y036067*
X044138Y036122*
X044127Y036176*
X044097Y036223*
X044050Y036253*
X043996Y036264*
G37*
G36*
X047066Y036558D02*
X045472D01*
X045433Y036550*
X045400Y036528*
X045134Y036263*
X045062Y036293*
X044972Y036305*
X044882Y036293*
X044798Y036258*
X044726Y036203*
X044670Y036130*
X044636Y036046*
X044624Y035956*
X044636Y035866*
X044670Y035782*
X044726Y035710*
X044798Y035655*
X044882Y035620*
X044972Y035608*
X045062Y035620*
X045146Y035655*
X045218Y035710*
X045274Y035782*
X045308Y035866*
X045320Y035956*
X045308Y036046*
X045278Y036119*
X045514Y036354*
X047024*
X047821Y035557*
X047854Y035535*
X047893Y035528*
X047947*
Y035511*
X047963Y035473*
X048002Y035457*
X048651*
X048689Y035473*
X048705Y035511*
Y035748*
X048689Y035786*
X048651Y035802*
X048002*
X047963Y035786*
X047960Y035778*
X047901Y035766*
X047139Y036528*
X047106Y036550*
X047066Y036558*
G37*
G36*
X045972Y037304D02*
X045882Y037293D01*
X045798Y037258*
X045726Y037202*
X045670Y037130*
X045636Y037046*
X045624Y036956*
X045636Y036866*
X045670Y036782*
X045726Y036710*
X045798Y036655*
X045882Y036620*
X045972Y036608*
X046062Y036620*
X046146Y036655*
X046218Y036710*
X046274Y036782*
X046303Y036854*
X046997*
X047900Y035951*
X047933Y035929*
X047972Y035921*
X049719*
Y035905*
X049735Y035867*
X049773Y035851*
X050423*
X050461Y035867*
X050477Y035905*
Y036141*
X050461Y036180*
X050423Y036195*
X049773*
X049735Y036180*
X049719Y036141*
Y036125*
X048014*
X047111Y037028*
X047078Y037050*
X047039Y037058*
X046303*
X046274Y037130*
X046218Y037202*
X046146Y037258*
X046062Y037293*
X045972Y037304*
G37*
G36*
X046307Y040558D02*
X045472D01*
X045433Y040550*
X045400Y040528*
X045134Y040263*
X045062Y040293*
X044972Y040305*
X044882Y040293*
X044798Y040258*
X044726Y040203*
X044670Y040130*
X044636Y040046*
X044624Y039956*
X044636Y039866*
X044670Y039782*
X044726Y039710*
X044798Y039655*
X044882Y039620*
X044972Y039608*
X045062Y039620*
X045146Y039655*
X045218Y039710*
X045274Y039782*
X045308Y039866*
X045320Y039956*
X045308Y040046*
X045278Y040119*
X045514Y040354*
X046264*
X047912Y038707*
X047945Y038685*
X047947Y038684*
Y038661*
X047963Y038623*
X048002Y038607*
X048651*
X048689Y038623*
X048705Y038661*
Y038897*
X048689Y038935*
X048651Y038951*
X048002*
X047969Y038938*
X046379Y040528*
X046346Y040550*
X046307Y040558*
G37*
G36*
X045972Y041305D02*
X045882Y041293D01*
X045798Y041258*
X045726Y041203*
X045670Y041130*
X045636Y041046*
X045624Y040956*
X045636Y040866*
X045670Y040782*
X045726Y040710*
X045798Y040655*
X045882Y040620*
X045972Y040608*
X046062Y040620*
X046146Y040655*
X046218Y040710*
X046228Y040723*
X046278Y040726*
X047904Y039101*
X047937Y039079*
X047976Y039071*
X049719*
Y039055*
X049735Y039016*
X049773Y039001*
X050423*
X050461Y039016*
X050477Y039055*
Y039291*
X050461Y039329*
X050423Y039345*
X049773*
X049735Y039329*
X049719Y039291*
Y039275*
X048018*
X046318Y040975*
X046308Y041046*
X046274Y041130*
X046218Y041203*
X046146Y041258*
X046062Y041293*
X045972Y041305*
G37*
G36*
X046299Y041558D02*
X045472D01*
X045433Y041550*
X045400Y041528*
X045134Y041263*
X045062Y041293*
X044972Y041305*
X044882Y041293*
X044798Y041258*
X044726Y041203*
X044670Y041130*
X044636Y041046*
X044624Y040956*
X044636Y040866*
X044670Y040782*
X044726Y040710*
X044798Y040655*
X044882Y040620*
X044972Y040608*
X045062Y040620*
X045146Y040655*
X045218Y040710*
X045274Y040782*
X045308Y040866*
X045320Y040956*
X045308Y041046*
X045278Y041119*
X045514Y041354*
X046257*
X047947Y039663*
Y039448*
X047963Y039410*
X048002Y039394*
X048651*
X048689Y039410*
X048705Y039448*
Y039685*
X048689Y039723*
X048651Y039739*
X048160*
X046371Y041528*
X046338Y041550*
X046299Y041558*
G37*
G36*
X045972Y039305D02*
X045882Y039293D01*
X045798Y039258*
X045726Y039202*
X045670Y039130*
X045636Y039046*
X045624Y038956*
X045636Y038866*
X045670Y038782*
X045726Y038710*
X045798Y038655*
X045882Y038620*
X045972Y038608*
X046062Y038620*
X046146Y038655*
X046218Y038710*
X046274Y038782*
X046303Y038854*
X046571*
X047900Y037526*
X047933Y037504*
X047972Y037496*
X049719*
Y037480*
X049735Y037442*
X049773Y037426*
X050423*
X050461Y037442*
X050477Y037480*
Y037716*
X050461Y037754*
X050423Y037770*
X049773*
X049735Y037754*
X049719Y037716*
Y037700*
X048014*
X046686Y039028*
X046653Y039050*
X046614Y039058*
X046303*
X046274Y039130*
X046218Y039202*
X046146Y039258*
X046062Y039293*
X045972Y039305*
G37*
G36*
X046519Y039558D02*
X045472D01*
X045433Y039550*
X045400Y039528*
X045134Y039263*
X045062Y039293*
X044972Y039305*
X044882Y039293*
X044798Y039258*
X044726Y039202*
X044670Y039130*
X044636Y039046*
X044624Y038956*
X044636Y038866*
X044670Y038782*
X044726Y038710*
X044798Y038655*
X044882Y038620*
X044972Y038608*
X045062Y038620*
X045146Y038655*
X045218Y038710*
X045274Y038782*
X045308Y038866*
X045320Y038956*
X045308Y039046*
X045278Y039119*
X045514Y039354*
X046477*
X047912Y037920*
X047945Y037897*
X047947Y037897*
Y037874*
X047963Y037835*
X048002Y037819*
X048651*
X048689Y037835*
X048705Y037874*
Y038110*
X048689Y038148*
X048651Y038164*
X048002*
X047969Y038151*
X046591Y039528*
X046558Y039550*
X046519Y039558*
G37*
G36*
X045972Y040305D02*
X045882Y040293D01*
X045798Y040258*
X045726Y040203*
X045670Y040130*
X045636Y040046*
X045624Y039956*
X045636Y039866*
X045670Y039782*
X045726Y039710*
X045798Y039655*
X045882Y039620*
X045972Y039608*
X046062Y039620*
X046146Y039655*
X046218Y039710*
X046274Y039782*
X046303Y039854*
X046371*
X047912Y038313*
X047945Y038291*
X047984Y038283*
X049719*
Y038267*
X049735Y038229*
X049773Y038213*
X050423*
X050461Y038229*
X050477Y038267*
Y038503*
X050461Y038542*
X050423Y038558*
X049773*
X049735Y038542*
X049719Y038503*
Y038487*
X048026*
X046485Y040028*
X046452Y040050*
X046413Y040058*
X046303*
X046274Y040130*
X046218Y040203*
X046146Y040258*
X046062Y040293*
X045972Y040305*
G37*
G36*
X046547Y034558D02*
X045472D01*
X045433Y034550*
X045400Y034528*
X045134Y034263*
X045062Y034293*
X044972Y034305*
X044882Y034293*
X044798Y034258*
X044726Y034203*
X044670Y034130*
X044636Y034046*
X044624Y033956*
X044636Y033866*
X044670Y033782*
X044726Y033710*
X044798Y033655*
X044882Y033620*
X044972Y033608*
X045062Y033620*
X045146Y033655*
X045218Y033710*
X045274Y033782*
X045308Y033866*
X045320Y033956*
X045308Y034046*
X045278Y034119*
X045514Y034354*
X046505*
X046876Y033983*
X046909Y033960*
X046948Y033953*
X047947*
Y033937*
X047963Y033898*
X048002Y033882*
X048651*
X048689Y033898*
X048705Y033937*
Y034173*
X048689Y034211*
X048651Y034227*
X048002*
X047963Y034211*
X047947Y034173*
Y034157*
X046991*
X046619Y034528*
X046586Y034550*
X046547Y034558*
G37*
G36*
X042681Y034868D02*
X042642Y034853D01*
X042430Y034640*
X042414Y034602*
Y034177*
X042430Y034139*
X042642Y033926*
X042681Y033910*
X043106*
X043144Y033926*
X043357Y034139*
X043372Y034177*
Y034602*
X043357Y034640*
X043144Y034853*
X043106Y034868*
X042681*
G37*
G36*
X043759Y034231D02*
X043547D01*
Y034094*
X043566Y034048*
X043612Y034029*
X043759*
Y034231*
G37*
G36*
X042853Y033619D02*
X042681D01*
X042635Y033600*
X042422Y033388*
X042403Y033342*
Y033169*
X042853*
Y033619*
G37*
G36*
X043106D02*
X042933D01*
Y033169*
X043383*
Y033342*
X043364Y033388*
X043152Y033600*
X043138Y033606*
X043106Y033619*
G37*
G36*
X045972Y034305D02*
X045882Y034293D01*
X045798Y034258*
X045726Y034203*
X045670Y034130*
X045636Y034046*
X045624Y033956*
X045636Y033866*
X045670Y033782*
X045726Y033710*
X045798Y033655*
X045882Y033620*
X045972Y033608*
X046062Y033620*
X046146Y033655*
X046218Y033710*
X046274Y033782*
X046303Y033854*
X046512*
X046778Y033589*
X046811Y033567*
X046850Y033559*
X049719*
Y033543*
X049735Y033505*
X049773Y033489*
X050423*
X050461Y033505*
X050477Y033543*
Y033779*
X050461Y033817*
X050423Y033833*
X049773*
X049735Y033817*
X049719Y033779*
Y033763*
X046892*
X046627Y034028*
X046594Y034050*
X046555Y034058*
X046303*
X046274Y034130*
X046218Y034203*
X046146Y034258*
X046062Y034293*
X045972Y034305*
G37*
G36*
X043986Y034513D02*
X043839D01*
Y034311*
X044051*
Y034448*
X044032Y034494*
X043986Y034513*
G37*
G36*
X046964Y035558D02*
X045472D01*
X045433Y035550*
X045400Y035528*
X045134Y035263*
X045062Y035293*
X044972Y035304*
X044882Y035293*
X044798Y035258*
X044726Y035202*
X044670Y035130*
X044636Y035046*
X044635Y035042*
X044040*
Y035118*
X044024Y035156*
X043986Y035172*
X043612*
X043573Y035156*
X043558Y035118*
Y034763*
X043573Y034725*
X043612Y034709*
X043986*
X044024Y034725*
X044040Y034763*
Y034839*
X044647*
X044670Y034782*
X044726Y034710*
X044798Y034655*
X044882Y034620*
X044972Y034608*
X045062Y034620*
X045146Y034655*
X045218Y034710*
X045274Y034782*
X045308Y034866*
X045320Y034956*
X045308Y035046*
X045278Y035119*
X045514Y035354*
X046922*
X047506Y034770*
X047539Y034748*
X047578Y034740*
X047947*
Y034724*
X047963Y034686*
X048002Y034670*
X048651*
X048689Y034686*
X048705Y034724*
Y034960*
X048689Y034998*
X048651Y035014*
X048002*
X047963Y034998*
X047947Y034960*
Y034944*
X047621*
X047036Y035528*
X047003Y035550*
X046964Y035558*
G37*
G36*
X045972Y036305D02*
X045882Y036293D01*
X045798Y036258*
X045726Y036203*
X045670Y036130*
X045636Y036046*
X045624Y035956*
X045636Y035866*
X045670Y035782*
X045726Y035710*
X045798Y035655*
X045882Y035620*
X045972Y035608*
X046062Y035620*
X046146Y035655*
X046218Y035710*
X046274Y035782*
X046303Y035854*
X046914*
X047605Y035164*
X047638Y035142*
X047677Y035134*
X049719*
Y035118*
X049735Y035079*
X049773Y035064*
X050423*
X050461Y035079*
X050477Y035118*
Y035354*
X050461Y035392*
X050423Y035408*
X049773*
X049735Y035392*
X049719Y035354*
Y035338*
X047719*
X047028Y036028*
X046995Y036050*
X046956Y036058*
X046303*
X046274Y036130*
X046218Y036203*
X046146Y036258*
X046062Y036293*
X045972Y036305*
G37*
G36*
X044051Y034231D02*
X043839D01*
Y034029*
X043986*
X044032Y034048*
X044051Y034094*
Y034231*
G37*
G36*
X045972Y035304D02*
X045882Y035293D01*
X045798Y035258*
X045726Y035202*
X045670Y035130*
X045636Y035046*
X045624Y034956*
X045636Y034866*
X045670Y034782*
X045726Y034710*
X045798Y034655*
X045882Y034620*
X045972Y034608*
X046062Y034620*
X046146Y034655*
X046218Y034710*
X046274Y034782*
X046303Y034854*
X046777*
X047255Y034376*
X047288Y034354*
X047327Y034346*
X049719*
Y034330*
X049735Y034292*
X049773Y034276*
X050423*
X050461Y034292*
X050477Y034330*
Y034566*
X050461Y034605*
X050423Y034621*
X049773*
X049735Y034605*
X049719Y034566*
Y034550*
X047369*
X046891Y035028*
X046858Y035050*
X046819Y035058*
X046303*
X046274Y035130*
X046218Y035202*
X046146Y035258*
X046062Y035293*
X045972Y035304*
G37*
G36*
X043759Y034513D02*
X043612D01*
X043566Y034494*
X043547Y034448*
Y034311*
X043759*
Y034513*
G37*
%LN32pinffc_breakout_pcb-3*%
%LPD*%
G54D10*
X043799Y032578D02*
D01*
X043799Y032570*
X043800Y032562*
X043801Y032554*
X043803Y032546*
X043806Y032538*
X043809Y032530*
X043813Y032523*
X043817Y032516*
X043821Y032509*
X043826Y032502*
X043832Y032496*
X043838Y032490*
X043844Y032485*
X043851Y032480*
X043858Y032476*
X043865Y032472*
X043873Y032469*
X043880Y032466*
X043888Y032464*
X043896Y032462*
X043904Y032461*
X043913Y032460*
X043917Y032460*
X046503Y033456D02*
X046692Y033267D01*
X045472Y033456D02*
X046503D01*
X044972Y032956D02*
X045472Y033456D01*
X045289Y032456D02*
X045789Y032956D01*
X044590Y032456D02*
X045289D01*
X044468Y032578D02*
X044590Y032456D01*
X045789Y032956D02*
X045972D01*
X045760Y032456D02*
X048303D01*
X045260Y031956D02*
X045760Y032456D01*
X044972Y031956D02*
X045260D01*
X047984Y037992D02*
X048326D01*
X046519Y039456D02*
X047984Y037992D01*
X045472Y039456D02*
X046519D01*
X047984Y038385D02*
X050098D01*
X046413Y039956D02*
X047984Y038385D01*
X045972Y039956D02*
X046413D01*
X047976Y039173D02*
X050098D01*
X046192Y040956D02*
X047976Y039173D01*
X046173Y040956D02*
X046192D01*
X047984Y038779D02*
X048326D01*
X046307Y040456D02*
X047984Y038779D01*
X045472Y040456D02*
X046307D01*
X043996Y033708D02*
Y033759D01*
X043799Y033511D02*
X043996Y033708D01*
X043799Y033248D02*
Y033511D01*
Y034019D02*
Y034271D01*
X043602Y033822D02*
X043799Y034019D01*
X043602Y033759D02*
Y033822D01*
X045616Y027456D02*
X046397D01*
X047483Y028543*
X045116Y026956D02*
X045616Y027456D01*
X047483Y028543D02*
X048326D01*
X044972Y026956D02*
X045116D01*
X046252Y028456D02*
X047126Y029330D01*
X045472Y028456D02*
X046252D01*
X044972Y027956D02*
X045472Y028456D01*
X046464Y029456D02*
X047126Y030118D01*
X045472Y029456D02*
X046464D01*
X044972Y028956D02*
X045472Y029456D01*
X046578Y030456D02*
X047027Y030905D01*
X045472Y030456D02*
X046578D01*
X044972Y029956D02*
X045472Y030456D01*
X048303Y032456D02*
X048326Y032480D01*
X046547Y034456D02*
X046948Y034055D01*
X045472Y034456D02*
X046547D01*
X044972Y033956D02*
X045472Y034456D01*
X046964Y035456D02*
X047578Y034842D01*
X045472Y035456D02*
X046964D01*
X044972Y034956D02*
X045472Y035456D01*
X046933Y037456D02*
X047972Y036417D01*
X045472Y037456D02*
X046933D01*
X044972Y036956D02*
X045472Y037456D01*
X046720Y038456D02*
X047972Y037204D01*
X045543Y038456D02*
X046720D01*
X045043Y037956D02*
X045543Y038456D01*
X044972Y038956D02*
X045472Y039456D01*
X044972Y039956D02*
X045472Y040456D01*
X046299Y041456D02*
X048189Y039566D01*
X045472Y041456D02*
X046299D01*
X045090Y041074D02*
X045472Y041456D01*
X048189Y039566D02*
X048326D01*
X047066Y036456D02*
X047893Y035629D01*
X045472Y036456D02*
X047066D01*
X044972Y035956D02*
X045472Y036456D01*
X046535Y026456D02*
X047834Y027755D01*
X045472Y026456D02*
X046535D01*
X044972Y025956D02*
X045472Y026456D01*
X043799Y031594D02*
Y031909D01*
X043602Y031397D02*
X043799Y031594D01*
Y035610D02*
Y035925D01*
X043996Y036122*
X047972Y037598D02*
X050098D01*
X046614Y038956D02*
X047972Y037598D01*
X045972Y038956D02*
X046614D01*
X047972Y037204D02*
X048326D01*
X047972Y036417D02*
X048326D01*
X047972Y036023D02*
X050098D01*
X047039Y036956D02*
X047972Y036023D01*
X045972Y036956D02*
X047039D01*
X046956Y035956D02*
X047677Y035236D01*
X045972Y035956D02*
X046956D01*
X047677Y035236D02*
X050098D01*
X047578Y034842D02*
X048326D01*
X046819Y034956D02*
X047327Y034448D01*
X045972Y034956D02*
X046819D01*
X046692Y033267D02*
X048326D01*
X046535Y031456D02*
X046771Y031692D01*
X045472Y031456D02*
X046535D01*
X044972Y030956D02*
X045472Y031456D01*
X046771Y031692D02*
X048326D01*
X045972Y037956D02*
X046811D01*
X047956Y036811*
X050098*
X047327Y034448D02*
X050098D01*
X046948Y034055D02*
X048326D01*
X046527Y025956D02*
X047933Y027362D01*
X046543Y026956D02*
X047736Y028149D01*
X046145Y027956D02*
X047126Y028937D01*
X045972Y027956D02*
X046145D01*
X047126Y028937D02*
X050098D01*
X046358Y028956D02*
X047126Y029724D01*
X045972Y028956D02*
X046358D01*
X047933Y027362D02*
X050098D01*
X047736Y028149D02*
X050098D01*
X047126Y029724D02*
X050098D01*
X046570Y029956D02*
X047126Y030511D01*
X050098*
X046850Y033661D02*
X050098D01*
X046555Y033956D02*
X046850Y033661D01*
X046507Y030956D02*
X046850Y031299D01*
X050098*
X046653Y032086D02*
X050098D01*
X046551Y032956D02*
X046633Y032874D01*
X050098*
X047834Y027755D02*
X048326D01*
X047126Y029330D02*
X048326D01*
X047126Y030118D02*
X048326D01*
X047027Y030905D02*
X048326D01*
X047893Y035629D02*
X048326D01*
X045090Y040956D02*
Y041074D01*
X044956Y034941D02*
X044972Y034956D01*
X043799Y034941D02*
X044956D01*
X043799Y032578D02*
X044468D01*
X045972Y029956D02*
X046570D01*
X046523Y031956D02*
X046653Y032086D01*
X045972Y031956D02*
X046523D01*
X045972Y032956D02*
X046551D01*
X045972Y025956D02*
X046527D01*
X045972Y026956D02*
X046543D01*
X045972Y030956D02*
X046507D01*
X045972Y033956D02*
X046555D01*
X044972Y037956D02*
X045043D01*
X044972Y040956D02*
X045090D01*
G54D11*
X043799Y031909D03*
Y033248D03*
Y032578D03*
Y034271D03*
Y035610D03*
Y034941D03*
G54D12*
X048326Y033267D03*
X050098Y027362D03*
X048326Y027755D03*
X050098Y028149D03*
X048326Y028543D03*
X050098Y028937D03*
X048326Y029330D03*
X050098Y029724D03*
X048326Y030118D03*
X050098Y030511D03*
X048326Y030905D03*
X050098Y031299D03*
X048326Y031692D03*
X050098Y032086D03*
X048326Y032480D03*
X050098Y032874D03*
X048326Y034055D03*
X050098Y033661D03*
X048326Y034842D03*
X050098Y034448D03*
X048326Y035629D03*
X050098Y035236D03*
X048326Y037204D03*
X050098Y036023D03*
X048326Y036417D03*
X050098Y036811D03*
X048326Y037992D03*
X050098Y037598D03*
X048326Y038779D03*
X050098Y038385D03*
Y039173D03*
X048326Y039566D03*
G54D13*
X042893Y034389D03*
Y033129D03*
G54D14*
X051377Y025885D03*
X043011D03*
X051377Y040846D03*
X043011D03*
G54D15*
X045972Y026956D03*
X044972D03*
X045972Y040956D03*
Y039956D03*
Y038956D03*
Y037956D03*
Y036956D03*
X044972Y040956D03*
Y039956D03*
Y038956D03*
Y037956D03*
Y036956D03*
Y032956D03*
Y033956D03*
Y034956D03*
Y035956D03*
X045972Y032956D03*
Y033956D03*
Y034956D03*
Y035956D03*
Y031956D03*
Y030956D03*
Y029956D03*
X044972Y031956D03*
Y030956D03*
Y029956D03*
Y027956D03*
Y028956D03*
X045972Y027956D03*
Y028956D03*
X044972Y025956D03*
X045972D03*
G54D16*
X043602Y031397D03*
X043996Y036122D03*
Y033759D03*
X043602D03*
X043011Y026700D03*
X042197Y025885D03*
X043011Y025071D03*
X043826Y025885D03*
X050802Y026461D03*
Y025310D03*
X051953D03*
Y026461D03*
X052192Y040846D03*
X051377Y040032D03*
X050563Y040846D03*
X051377Y041660D03*
X043587Y041422D03*
Y040270D03*
X042436D03*
Y041422D03*
X041908Y041988D03*
X052476Y024775D03*
X041908Y024767D03*
X047220Y041000D03*
X052035Y027255D03*
X045421Y025153D03*
X048098Y025622D03*
X050917Y031710D03*
X050858Y034842D03*
X050862Y037248D03*
X049500Y028500D03*
X048000Y040500D03*
X051750Y039000D03*
X052500Y034500D03*
X051750Y033000D03*
X042000Y037500D03*
X044250Y039000D03*
X043500Y028500D03*
X042750Y039000D03*
X051750Y030000D03*
Y036000D03*
X052500Y028500D03*
X042000Y034500D03*
X042750Y036000D03*
X051000Y028500D03*
X052500Y031500D03*
Y037500D03*
X042000Y031500D03*
X050250Y027000D03*
X043500Y037500D03*
X042000Y028500D03*
X049500Y040500D03*
X048750Y027000D03*
X042750Y030000D03*
M02*