%FSDAX24Y24*%
%MOIN*%
%SFA1B1*%

%IPPOS*%
%ADD17C,0.006000*%
%ADD18C,0.008000*%
%ADD19C,0.007000*%
%ADD20C,0.005000*%
%ADD21C,0.007870*%
%LN32pinffc_breakout_pcb-1*%
%LPD*%
G54D17*
X052323Y025885D02*
D01*
X052321Y025951*
X052314Y026017*
X052302Y026082*
X052286Y026146*
X052266Y026209*
X052241Y026270*
X052212Y026329*
X052179Y026386*
X052142Y026441*
X052102Y026493*
X052058Y026542*
X052010Y026588*
X051960Y026631*
X051906Y026669*
X051850Y026704*
X051792Y026735*
X051732Y026762*
X051670Y026785*
X051606Y026803*
X051542Y026817*
X051476Y026826*
X051410Y026830*
X051344*
X051279Y026826*
X051213Y026817*
X051149Y026803*
X051085Y026785*
X051023Y026762*
X050963Y026735*
X050905Y026704*
X050849Y026669*
X050795Y026631*
X050745Y026588*
X050697Y026542*
X050653Y026493*
X050612Y026441*
X050575Y026386*
X050542Y026329*
X050513Y026270*
X050489Y026209*
X050468Y026146*
X050452Y026082*
X050441Y026017*
X050434Y025951*
X050432Y025885*
X050434Y025819*
X050441Y025754*
X050452Y025689*
X050468Y025625*
X050489Y025562*
X050513Y025501*
X050542Y025441*
X050575Y025384*
X050612Y025329*
X050653Y025277*
X050697Y025228*
X050745Y025183*
X050795Y025140*
X050849Y025101*
X050905Y025066*
X050963Y025035*
X051023Y025008*
X051085Y024986*
X051149Y024968*
X051213Y024954*
X051279Y024945*
X051344Y024940*
X051410*
X051476Y024945*
X051542Y024954*
X051606Y024968*
X051670Y024986*
X051732Y025008*
X051792Y025035*
X051850Y025066*
X051906Y025101*
X051960Y025140*
X052010Y025183*
X052058Y025228*
X052102Y025277*
X052142Y025329*
X052179Y025384*
X052212Y025441*
X052241Y025501*
X052266Y025562*
X052286Y025625*
X052302Y025689*
X052314Y025754*
X052321Y025819*
X052323Y025885*
X043957D02*
D01*
X043955Y025951*
X043948Y026017*
X043936Y026082*
X043920Y026146*
X043900Y026209*
X043875Y026270*
X043846Y026329*
X043813Y026386*
X043776Y026441*
X043736Y026493*
X043692Y026542*
X043644Y026588*
X043594Y026631*
X043540Y026669*
X043484Y026704*
X043426Y026735*
X043366Y026762*
X043304Y026785*
X043240Y026803*
X043176Y026817*
X043110Y026826*
X043044Y026830*
X042978*
X042912Y026826*
X042847Y026817*
X042783Y026803*
X042719Y026785*
X042657Y026762*
X042597Y026735*
X042538Y026704*
X042482Y026669*
X042429Y026631*
X042379Y026588*
X042331Y026542*
X042287Y026493*
X042246Y026441*
X042209Y026386*
X042176Y026329*
X042147Y026270*
X042123Y026209*
X042102Y026146*
X042086Y026082*
X042075Y026017*
X042068Y025951*
X042066Y025885*
X042068Y025819*
X042075Y025754*
X042086Y025689*
X042102Y025625*
X042123Y025562*
X042147Y025501*
X042176Y025441*
X042209Y025384*
X042246Y025329*
X042287Y025277*
X042331Y025228*
X042379Y025183*
X042429Y025140*
X042482Y025101*
X042538Y025066*
X042597Y025035*
X042657Y025008*
X042719Y024986*
X042783Y024968*
X042847Y024954*
X042912Y024945*
X042978Y024940*
X043044*
X043110Y024945*
X043176Y024954*
X043240Y024968*
X043304Y024986*
X043366Y025008*
X043426Y025035*
X043484Y025066*
X043540Y025101*
X043594Y025140*
X043644Y025183*
X043692Y025228*
X043736Y025277*
X043776Y025329*
X043813Y025384*
X043846Y025441*
X043875Y025501*
X043900Y025562*
X043920Y025625*
X043936Y025689*
X043948Y025754*
X043955Y025819*
X043957Y025885*
X052323Y040846D02*
D01*
X052321Y040912*
X052314Y040978*
X052302Y041043*
X052286Y041107*
X052266Y041169*
X052241Y041231*
X052212Y041290*
X052179Y041347*
X052142Y041402*
X052102Y041454*
X052058Y041503*
X052010Y041549*
X051960Y041591*
X051906Y041630*
X051850Y041665*
X051792Y041696*
X051732Y041723*
X051670Y041745*
X051606Y041764*
X051542Y041777*
X051476Y041787*
X051410Y041791*
X051344*
X051279Y041787*
X051213Y041777*
X051149Y041764*
X051085Y041745*
X051023Y041723*
X050963Y041696*
X050905Y041665*
X050849Y041630*
X050795Y041591*
X050745Y041549*
X050697Y041503*
X050653Y041454*
X050612Y041402*
X050575Y041347*
X050542Y041290*
X050513Y041231*
X050489Y041169*
X050468Y041107*
X050452Y041043*
X050441Y040978*
X050434Y040912*
X050432Y040846*
X050434Y040780*
X050441Y040714*
X050452Y040649*
X050468Y040585*
X050489Y040523*
X050513Y040461*
X050542Y040402*
X050575Y040345*
X050612Y040290*
X050653Y040238*
X050697Y040189*
X050745Y040143*
X050795Y040101*
X050849Y040062*
X050905Y040027*
X050963Y039996*
X051023Y039969*
X051085Y039947*
X051149Y039928*
X051213Y039915*
X051279Y039905*
X051344Y039901*
X051410*
X051476Y039905*
X051542Y039915*
X051606Y039928*
X051670Y039947*
X051732Y039969*
X051792Y039996*
X051850Y040027*
X051906Y040062*
X051960Y040101*
X052010Y040143*
X052058Y040189*
X052102Y040238*
X052142Y040290*
X052179Y040345*
X052212Y040402*
X052241Y040461*
X052266Y040523*
X052286Y040585*
X052302Y040649*
X052314Y040714*
X052321Y040780*
X052323Y040846*
X043957D02*
D01*
X043955Y040912*
X043948Y040978*
X043936Y041043*
X043920Y041107*
X043900Y041169*
X043875Y041231*
X043846Y041290*
X043813Y041347*
X043776Y041402*
X043736Y041454*
X043692Y041503*
X043644Y041549*
X043594Y041591*
X043540Y041630*
X043484Y041665*
X043426Y041696*
X043366Y041723*
X043304Y041745*
X043240Y041764*
X043176Y041777*
X043110Y041787*
X043044Y041791*
X042978*
X042912Y041787*
X042847Y041777*
X042783Y041764*
X042719Y041745*
X042657Y041723*
X042597Y041696*
X042538Y041665*
X042482Y041630*
X042429Y041591*
X042379Y041549*
X042331Y041503*
X042287Y041454*
X042246Y041402*
X042209Y041347*
X042176Y041290*
X042147Y041231*
X042123Y041169*
X042102Y041107*
X042086Y041043*
X042075Y040978*
X042068Y040912*
X042066Y040846*
X042068Y040780*
X042075Y040714*
X042086Y040649*
X042102Y040585*
X042123Y040523*
X042147Y040461*
X042176Y040402*
X042209Y040345*
X042246Y040290*
X042287Y040238*
X042331Y040189*
X042379Y040143*
X042429Y040101*
X042482Y040062*
X042538Y040027*
X042597Y039996*
X042657Y039969*
X042719Y039947*
X042783Y039928*
X042847Y039915*
X042912Y039905*
X042978Y039901*
X043044*
X043110Y039905*
X043176Y039915*
X043240Y039928*
X043304Y039947*
X043366Y039969*
X043426Y039996*
X043484Y040027*
X043540Y040062*
X043594Y040101*
X043644Y040143*
X043692Y040189*
X043736Y040238*
X043776Y040290*
X043813Y040345*
X043846Y040402*
X043875Y040461*
X043900Y040523*
X043920Y040585*
X043936Y040649*
X043948Y040714*
X043955Y040780*
X043957Y040846*
G54D18*
X052034Y025885D02*
D01*
X052032Y025931*
X052028Y025977*
X052020Y026022*
X052009Y026066*
X051994Y026110*
X051977Y026152*
X051957Y026194*
X051934Y026233*
X051909Y026271*
X051880Y026307*
X051850Y026341*
X051817Y026373*
X051782Y026403*
X051745Y026430*
X051706Y026454*
X051665Y026475*
X051623Y026494*
X051580Y026510*
X051536Y026522*
X051491Y026532*
X051446Y026538*
X051400Y026542*
X051354*
X051309Y026538*
X051263Y026532*
X051219Y026522*
X051174Y026510*
X051131Y026494*
X051090Y026475*
X051049Y026454*
X051010Y026430*
X050973Y026403*
X050938Y026373*
X050905Y026341*
X050874Y026307*
X050846Y026271*
X050821Y026233*
X050798Y026194*
X050778Y026152*
X050760Y026110*
X050746Y026066*
X050735Y026022*
X050727Y025977*
X050722Y025931*
X050721Y025885*
X050722Y025839*
X050727Y025794*
X050735Y025749*
X050746Y025704*
X050760Y025661*
X050778Y025618*
X050798Y025577*
X050821Y025537*
X050846Y025499*
X050874Y025463*
X050905Y025429*
X050938Y025397*
X050973Y025368*
X051010Y025341*
X051049Y025317*
X051090Y025295*
X051131Y025277*
X051174Y025261*
X051219Y025248*
X051263Y025239*
X051309Y025232*
X051354Y025229*
X051400*
X051446Y025232*
X051491Y025239*
X051536Y025248*
X051580Y025261*
X051623Y025277*
X051665Y025295*
X051706Y025317*
X051745Y025341*
X051782Y025368*
X051817Y025397*
X051850Y025429*
X051880Y025463*
X051909Y025499*
X051934Y025537*
X051957Y025577*
X051977Y025618*
X051994Y025661*
X052009Y025704*
X052020Y025749*
X052028Y025794*
X052032Y025839*
X052034Y025885*
X043668D02*
D01*
X043666Y025931*
X043662Y025977*
X043654Y026022*
X043642Y026066*
X043628Y026110*
X043611Y026152*
X043591Y026194*
X043568Y026233*
X043543Y026271*
X043514Y026307*
X043484Y026341*
X043451Y026373*
X043416Y026403*
X043378Y026430*
X043340Y026454*
X043299Y026475*
X043257Y026494*
X043214Y026510*
X043170Y026522*
X043125Y026532*
X043080Y026538*
X043034Y026542*
X042988*
X042943Y026538*
X042897Y026532*
X042852Y026522*
X042808Y026510*
X042765Y026494*
X042723Y026475*
X042683Y026454*
X042644Y026430*
X042607Y026403*
X042572Y026373*
X042539Y026341*
X042508Y026307*
X042480Y026271*
X042454Y026233*
X042432Y026194*
X042411Y026152*
X042394Y026110*
X042380Y026066*
X042369Y026022*
X042361Y025977*
X042356Y025931*
X042355Y025885*
X042356Y025839*
X042361Y025794*
X042369Y025749*
X042380Y025704*
X042394Y025661*
X042411Y025618*
X042432Y025577*
X042454Y025537*
X042480Y025499*
X042508Y025463*
X042539Y025429*
X042572Y025397*
X042607Y025368*
X042644Y025341*
X042683Y025317*
X042723Y025295*
X042765Y025277*
X042808Y025261*
X042852Y025248*
X042897Y025239*
X042943Y025232*
X042988Y025229*
X043034*
X043080Y025232*
X043125Y025239*
X043170Y025248*
X043214Y025261*
X043257Y025277*
X043299Y025295*
X043340Y025317*
X043378Y025341*
X043416Y025368*
X043451Y025397*
X043484Y025429*
X043514Y025463*
X043543Y025499*
X043568Y025537*
X043591Y025577*
X043611Y025618*
X043628Y025661*
X043642Y025704*
X043654Y025749*
X043662Y025794*
X043666Y025839*
X043668Y025885*
X052034Y040846D02*
D01*
X052032Y040892*
X052028Y040937*
X052020Y040983*
X052009Y041027*
X051994Y041071*
X051977Y041113*
X051957Y041154*
X051934Y041194*
X051909Y041232*
X051880Y041268*
X051850Y041302*
X051817Y041334*
X051782Y041363*
X051745Y041390*
X051706Y041415*
X051665Y041436*
X051623Y041455*
X051580Y041470*
X051536Y041483*
X051491Y041493*
X051446Y041499*
X051400Y041502*
X051354*
X051309Y041499*
X051263Y041493*
X051219Y041483*
X051174Y041470*
X051131Y041455*
X051090Y041436*
X051049Y041415*
X051010Y041390*
X050973Y041363*
X050938Y041334*
X050905Y041302*
X050874Y041268*
X050846Y041232*
X050821Y041194*
X050798Y041154*
X050778Y041113*
X050760Y041071*
X050746Y041027*
X050735Y040983*
X050727Y040937*
X050722Y040892*
X050721Y040846*
X050722Y040800*
X050727Y040755*
X050735Y040709*
X050746Y040665*
X050760Y040621*
X050778Y040579*
X050798Y040538*
X050821Y040498*
X050846Y040460*
X050874Y040424*
X050905Y040390*
X050938Y040358*
X050973Y040329*
X051010Y040302*
X051049Y040277*
X051090Y040256*
X051131Y040237*
X051174Y040222*
X051219Y040209*
X051263Y040199*
X051309Y040193*
X051354Y040190*
X051400*
X051446Y040193*
X051491Y040199*
X051536Y040209*
X051580Y040222*
X051623Y040237*
X051665Y040256*
X051706Y040277*
X051745Y040302*
X051782Y040329*
X051817Y040358*
X051850Y040390*
X051880Y040424*
X051909Y040460*
X051934Y040498*
X051957Y040538*
X051977Y040579*
X051994Y040621*
X052009Y040665*
X052020Y040709*
X052028Y040755*
X052032Y040800*
X052034Y040846*
X043668D02*
D01*
X043666Y040892*
X043662Y040937*
X043654Y040983*
X043642Y041027*
X043628Y041071*
X043611Y041113*
X043591Y041154*
X043568Y041194*
X043543Y041232*
X043514Y041268*
X043484Y041302*
X043451Y041334*
X043416Y041363*
X043378Y041390*
X043340Y041415*
X043299Y041436*
X043257Y041455*
X043214Y041470*
X043170Y041483*
X043125Y041493*
X043080Y041499*
X043034Y041502*
X042988*
X042943Y041499*
X042897Y041493*
X042852Y041483*
X042808Y041470*
X042765Y041455*
X042723Y041436*
X042683Y041415*
X042644Y041390*
X042607Y041363*
X042572Y041334*
X042539Y041302*
X042508Y041268*
X042480Y041232*
X042454Y041194*
X042432Y041154*
X042411Y041113*
X042394Y041071*
X042380Y041027*
X042369Y040983*
X042361Y040937*
X042356Y040892*
X042355Y040846*
X042356Y040800*
X042361Y040755*
X042369Y040709*
X042380Y040665*
X042394Y040621*
X042411Y040579*
X042432Y040538*
X042454Y040498*
X042480Y040460*
X042508Y040424*
X042539Y040390*
X042572Y040358*
X042607Y040329*
X042644Y040302*
X042683Y040277*
X042723Y040256*
X042765Y040237*
X042808Y040222*
X042852Y040209*
X042897Y040199*
X042943Y040193*
X042988Y040190*
X043034*
X043080Y040193*
X043125Y040199*
X043170Y040209*
X043214Y040222*
X043257Y040237*
X043299Y040256*
X043340Y040277*
X043378Y040302*
X043416Y040329*
X043451Y040358*
X043484Y040390*
X043514Y040424*
X043543Y040460*
X043568Y040498*
X043591Y040538*
X043611Y040579*
X043628Y040621*
X043642Y040665*
X043654Y040709*
X043662Y040755*
X043666Y040800*
X043668Y040846*
X044409Y041515D02*
X046535D01*
X044409Y025397D02*
Y041515D01*
X046535Y025397D02*
Y041515D01*
X044409Y025397D02*
X046535D01*
X044173Y040706D02*
Y041206D01*
G54D19*
X043503Y031633D02*
X044094D01*
Y031870*
X043503Y031633D02*
Y031870D01*
Y033523D02*
X044094D01*
Y033287D02*
Y033523D01*
X043503Y033287D02*
Y033523D01*
Y033996D02*
X044094D01*
Y034232*
X043503Y033996D02*
Y034232D01*
Y035885D02*
X044094D01*
Y035649D02*
Y035885D01*
X043503Y035649D02*
Y035885D01*
G54D20*
X047597Y039427D02*
Y039706D01*
X047736Y039566*
X047597Y039427D02*
X047736Y039566D01*
X047963Y041414D02*
X047996Y041447D01*
X048061*
X048094Y041414*
Y041382*
X048061Y041349*
X048029*
X048061*
X048094Y041316*
Y041283*
X048061Y041250*
X047996*
X047963Y041283*
X048291Y041250D02*
X048160D01*
X048291Y041382*
Y041414*
X048258Y041447*
X048193*
X048160Y041414*
X048553Y041250D02*
Y041447D01*
X048652*
X048684Y041414*
Y041349*
X048652Y041316*
X048553*
X048783Y041250D02*
X048848D01*
X048881Y041283*
Y041349*
X048848Y041382*
X048783*
X048750Y041349*
Y041283*
X048783Y041250*
X048947D02*
X049045D01*
X049078Y041283*
X049045Y041316*
X048980*
X048947Y041349*
X048980Y041382*
X049078*
X049144Y041250D02*
X049209D01*
X049176*
Y041382*
X049144*
X049340Y041414D02*
Y041382D01*
X049308*
X049373*
X049340*
Y041283*
X049373Y041250*
X049472D02*
X049537D01*
X049504*
Y041382*
X049472*
X049668Y041250D02*
X049734D01*
X049767Y041283*
Y041349*
X049734Y041382*
X049668*
X049636Y041349*
Y041283*
X049668Y041250*
X049832D02*
Y041382D01*
X049931*
X049964Y041349*
Y041250*
X048160Y040857D02*
X048225D01*
X048193*
Y041053*
X048160Y041021*
X048324Y040857D02*
Y040988D01*
X048357*
X048389Y040955*
Y040857*
Y040955*
X048422Y040988*
X048455Y040955*
Y040857*
X048521D02*
Y040988D01*
X048553*
X048586Y040955*
Y040857*
Y040955*
X048619Y040988*
X048652Y040955*
Y040857*
X048914D02*
Y041053D01*
X049013*
X049045Y041021*
Y040955*
X049013Y040922*
X048914*
X049111Y040857D02*
X049177D01*
X049144*
Y040988*
X049111*
X049308Y041021D02*
Y040988D01*
X049275*
X049340*
X049308*
Y040889*
X049340Y040857*
X049570Y040988D02*
X049472D01*
X049439Y040955*
Y040889*
X049472Y040857*
X049570*
X049636Y041053D02*
Y040857D01*
Y040955*
X049668Y040988*
X049734*
X049767Y040955*
Y040857*
X043858Y031318D02*
Y031498D01*
X043948*
X043978Y031468*
Y031408*
X043948Y031378*
X043858*
X043918D02*
X043978Y031318D01*
X044158D02*
X044038D01*
X044158Y031438*
Y031468*
X044128Y031498*
X044068*
X044038Y031468*
X043464Y036003D02*
Y036183D01*
X043554*
X043584Y036153*
Y036093*
X043554Y036063*
X043464*
X043524D02*
X043584Y036003D01*
X043644D02*
X043704D01*
X043674*
Y036183*
X043644Y036153*
X042618Y035019D02*
X042749D01*
X042683Y035085D02*
Y034954D01*
X042814Y035085D02*
X042847Y035118D01*
X042913*
X042946Y035085*
Y035052*
X042913Y035019*
X042880*
X042913*
X042946Y034986*
Y034954*
X042913Y034921*
X042847*
X042814Y034954*
X043011Y035118D02*
Y034986D01*
X043077Y034921*
X043142Y034986*
Y035118*
X047047Y039468D02*
Y039648D01*
X047107Y039588*
X047167Y039648*
Y039468*
X047227Y039648D02*
X047347Y039468D01*
Y039648D02*
X047227Y039468D01*
X047407D02*
X047466D01*
X047436*
Y039648*
X047407Y039618*
X050590Y039074D02*
Y039254D01*
X050650Y039194*
X050710Y039254*
Y039074*
X050770Y039254D02*
X050890Y039074D01*
Y039254D02*
X050770Y039074D01*
X050950Y039254D02*
X051070D01*
Y039224*
X050950Y039104*
Y039074*
X047322Y038681D02*
Y038861D01*
X047382Y038801*
X047442Y038861*
Y038681*
X047502Y038861D02*
X047622Y038681D01*
Y038861D02*
X047502Y038681D01*
X047802Y038861D02*
X047742Y038831D01*
X047682Y038771*
Y038711*
X047712Y038681*
X047772*
X047802Y038711*
Y038741*
X047772Y038771*
X047682*
X047322Y037893D02*
Y038073D01*
X047382Y038013*
X047442Y038073*
Y037893*
X047502Y038073D02*
X047622Y037893D01*
Y038073D02*
X047502Y037893D01*
X047772D02*
Y038073D01*
X047682Y037983*
X047802*
X047322Y037106D02*
Y037286D01*
X047382Y037226*
X047442Y037286*
Y037106*
X047502Y037286D02*
Y037256D01*
X047562Y037196*
X047622Y037256*
Y037286*
X047562Y037196D02*
Y037106D01*
X047682Y037256D02*
X047712Y037286D01*
X047772*
X047802Y037256*
Y037136*
X047772Y037106*
X047712*
X047682Y037136*
Y037256*
X047322Y036318D02*
Y036498D01*
X047382Y036438*
X047442Y036498*
Y036318*
X047502Y036498D02*
X047622Y036318D01*
Y036498D02*
X047502Y036318D01*
X047682Y036468D02*
X047712Y036498D01*
X047772*
X047802Y036468*
Y036438*
X047772Y036408*
X047742*
X047772*
X047802Y036378*
Y036348*
X047772Y036318*
X047712*
X047682Y036348*
X047322Y035531D02*
Y035711D01*
X047382Y035651*
X047442Y035711*
Y035531*
X047502Y035711D02*
Y035681D01*
X047562Y035621*
X047622Y035681*
Y035711*
X047562Y035621D02*
Y035531D01*
X047682D02*
X047742D01*
X047712*
Y035711*
X047682Y035681*
X047322Y034744D02*
Y034924D01*
X047382Y034864*
X047442Y034924*
Y034744*
X047502Y034924D02*
Y034894D01*
X047562Y034834*
X047622Y034894*
Y034924*
X047562Y034834D02*
Y034744D01*
X047802D02*
X047682D01*
X047802Y034864*
Y034894*
X047772Y034924*
X047712*
X047682Y034894*
X047322Y033956D02*
Y034136D01*
X047382Y034076*
X047442Y034136*
Y033956*
X047502Y034136D02*
Y034106D01*
X047562Y034046*
X047622Y034106*
Y034136*
X047562Y034046D02*
Y033956D01*
X047682Y034136D02*
X047802D01*
Y034106*
X047682Y033986*
Y033956*
X047322Y033169D02*
Y033349D01*
X047382Y033289*
X047442Y033349*
Y033169*
X047502Y033349D02*
Y033319D01*
X047562Y033259*
X047622Y033319*
Y033349*
X047562Y033259D02*
Y033169D01*
X047802Y033349D02*
X047742Y033319D01*
X047682Y033259*
Y033199*
X047712Y033169*
X047772*
X047802Y033199*
Y033229*
X047772Y033259*
X047682*
X047165Y032381D02*
Y032561D01*
X047225Y032501*
X047285Y032561*
Y032381*
X047345Y032561D02*
Y032531D01*
X047405Y032471*
X047465Y032531*
Y032561*
X047405Y032471D02*
Y032381D01*
X047525D02*
X047585D01*
X047555*
Y032561*
X047525Y032531*
X047794Y032381D02*
X047675D01*
X047794Y032501*
Y032531*
X047764Y032561*
X047704*
X047675Y032531*
X047165Y031594D02*
Y031774D01*
X047225Y031714*
X047285Y031774*
Y031594*
X047345Y031774D02*
Y031744D01*
X047405Y031684*
X047465Y031744*
Y031774*
X047405Y031684D02*
Y031594D01*
X047525D02*
X047585D01*
X047555*
Y031774*
X047525Y031744*
X047764Y031594D02*
Y031774D01*
X047675Y031684*
X047794*
X047165Y030816D02*
Y030996D01*
X047225Y030936*
X047285Y030996*
Y030816*
X047345Y030996D02*
Y030966D01*
X047405Y030906*
X047465Y030966*
Y030996*
X047405Y030906D02*
Y030816D01*
X047525D02*
X047585D01*
X047555*
Y030996*
X047525Y030966*
X047675D02*
X047704Y030996D01*
X047764*
X047794Y030966*
Y030846*
X047764Y030816*
X047704*
X047675Y030846*
Y030966*
X047165Y030019D02*
Y030199D01*
X047225Y030139*
X047285Y030199*
Y030019*
X047345Y030199D02*
Y030169D01*
X047405Y030109*
X047465Y030169*
Y030199*
X047405Y030109D02*
Y030019D01*
X047525D02*
X047585D01*
X047555*
Y030199*
X047525Y030169*
X047794Y030199D02*
X047734Y030169D01*
X047675Y030109*
Y030049*
X047704Y030019*
X047764*
X047794Y030049*
Y030079*
X047764Y030109*
X047675*
X047322Y029322D02*
X047442D01*
X047382Y029382D02*
Y029262D01*
X047502Y029382D02*
X047532Y029412D01*
X047592*
X047622Y029382*
Y029352*
X047592Y029322*
X047562*
X047592*
X047622Y029292*
Y029262*
X047592Y029232*
X047532*
X047502Y029262*
X047682Y029352D02*
X047742Y029232D01*
X047802Y029352*
X046850Y028444D02*
Y028624D01*
X046970Y028444*
Y028624*
X047030D02*
Y028474D01*
X047060Y028444*
X047120*
X047150Y028474*
Y028624*
X047210Y028444D02*
Y028624D01*
X047270Y028564*
X047330Y028624*
Y028444*
X047390Y028624D02*
Y028444D01*
X047509*
X047689Y028624D02*
X047569D01*
Y028444*
X047689*
X047569Y028534D02*
X047629D01*
X047749Y028624D02*
Y028444D01*
X047839*
X047869Y028474*
Y028594*
X047839Y028624*
X047749*
X047047Y027837D02*
Y027657D01*
X047107Y027717*
X047167Y027657*
Y027837*
X047227Y027627D02*
X047347D01*
X047496Y027837D02*
X047436D01*
X047407Y027807*
Y027687*
X047436Y027657*
X047496*
X047526Y027687*
Y027807*
X047496Y027837*
X047706D02*
X047586D01*
Y027747*
X047646*
X047586*
Y027657*
X047886Y027837D02*
X047766D01*
Y027747*
X047826*
X047766*
Y027657*
X050590Y038287D02*
Y038467D01*
X050650Y038407*
X050710Y038467*
Y038287*
X050770Y038467D02*
Y038437D01*
X050830Y038377*
X050890Y038437*
Y038467*
X050830Y038377D02*
Y038287D01*
X050950Y038317D02*
X050980Y038287D01*
X051040*
X051070Y038317*
Y038437*
X051040Y038467*
X050980*
X050950Y038437*
Y038407*
X050980Y038377*
X051070*
X050590Y037500D02*
Y037679D01*
X050650Y037619*
X050710Y037679*
Y037500*
X050770Y037679D02*
X050890Y037500D01*
Y037679D02*
X050770Y037500D01*
X051070Y037679D02*
X050950D01*
Y037589*
X051010Y037619*
X051040*
X051070Y037589*
Y037530*
X051040Y037500*
X050980*
X050950Y037530*
X050590Y036712D02*
Y036892D01*
X050650Y036832*
X050710Y036892*
Y036712*
X050770Y036892D02*
X050890Y036712D01*
Y036892D02*
X050770Y036712D01*
X051070D02*
X050950D01*
X051070Y036832*
Y036862*
X051040Y036892*
X050980*
X050950Y036862*
X050590Y035925D02*
Y036105D01*
X050650Y036045*
X050710Y036105*
Y035925*
X050770Y036105D02*
Y036075D01*
X050830Y036015*
X050890Y036075*
Y036105*
X050830Y036015D02*
Y035925D01*
X051070Y036105D02*
X050950D01*
Y036015*
X051010Y036045*
X051040*
X051070Y036015*
Y035955*
X051040Y035925*
X050980*
X050950Y035955*
X050590Y035137D02*
Y035317D01*
X050650Y035257*
X050710Y035317*
Y035137*
X050770Y035317D02*
X050890Y035137D01*
Y035317D02*
X050770Y035137D01*
X050950Y035287D02*
X050980Y035317D01*
X051040*
X051070Y035287*
Y035167*
X051040Y035137*
X050980*
X050950Y035167*
Y035287*
X050590Y034350D02*
Y034530D01*
X050650Y034470*
X050710Y034530*
Y034350*
X050770Y034530D02*
Y034500D01*
X050830Y034440*
X050890Y034500*
Y034530*
X050830Y034440D02*
Y034350D01*
X051040D02*
Y034530D01*
X050950Y034440*
X051070*
X050590Y033563D02*
Y033742D01*
X050650Y033682*
X050710Y033742*
Y033563*
X050770Y033742D02*
Y033712D01*
X050830Y033652*
X050890Y033712*
Y033742*
X050830Y033652D02*
Y033563D01*
X050950Y033712D02*
X050980Y033742D01*
X051040*
X051070Y033712*
Y033682*
X051040Y033652*
X051070Y033622*
Y033593*
X051040Y033563*
X050980*
X050950Y033593*
Y033622*
X050980Y033652*
X050950Y033682*
Y033712*
X050980Y033652D02*
X051040D01*
X050590Y032775D02*
Y032955D01*
X050650Y032895*
X050710Y032955*
Y032775*
X050770Y032955D02*
Y032925D01*
X050830Y032865*
X050890Y032925*
Y032955*
X050830Y032865D02*
Y032775D01*
X050950Y032925D02*
X050980Y032955D01*
X051040*
X051070Y032925*
Y032895*
X051040Y032865*
X051010*
X051040*
X051070Y032835*
Y032805*
X051040Y032775*
X050980*
X050950Y032805*
X050590Y031988D02*
Y032168D01*
X050650Y032108*
X050710Y032168*
Y031988*
X050770Y032168D02*
Y032138D01*
X050830Y032078*
X050890Y032138*
Y032168*
X050830Y032078D02*
Y031988D01*
X050950D02*
X051010D01*
X050980*
Y032168*
X050950Y032138*
X051100D02*
X051130Y032168D01*
X051190*
X051220Y032138*
Y032108*
X051190Y032078*
X051160*
X051190*
X051220Y032048*
Y032018*
X051190Y031988*
X051130*
X051100Y032018*
X050590Y031200D02*
Y031380D01*
X050650Y031320*
X050710Y031380*
Y031200*
X050770Y031380D02*
Y031350D01*
X050830Y031290*
X050890Y031350*
Y031380*
X050830Y031290D02*
Y031200D01*
X050950D02*
X051010D01*
X050980*
Y031380*
X050950Y031350*
X051100Y031200D02*
X051160D01*
X051130*
Y031380*
X051100Y031350*
X050590Y030413D02*
Y030593D01*
X050650Y030533*
X050710Y030593*
Y030413*
X050770Y030593D02*
Y030563D01*
X050830Y030503*
X050890Y030563*
Y030593*
X050830Y030503D02*
Y030413D01*
X050950D02*
X051010D01*
X050980*
Y030593*
X050950Y030563*
X051220Y030593D02*
X051100D01*
Y030503*
X051160Y030533*
X051190*
X051220Y030503*
Y030443*
X051190Y030413*
X051130*
X051100Y030443*
X050590Y029626D02*
Y029805D01*
X050650Y029745*
X050710Y029805*
Y029626*
X050770Y029805D02*
Y029775D01*
X050830Y029715*
X050890Y029775*
Y029805*
X050830Y029715D02*
Y029626D01*
X050950D02*
X051010D01*
X050980*
Y029805*
X050950Y029775*
X051100Y029805D02*
X051220D01*
Y029775*
X051100Y029656*
Y029626*
X050710Y028988D02*
X050680Y029018D01*
X050620*
X050590Y028988*
Y028868*
X050620Y028838*
X050680*
X050710Y028868*
X050770Y028838D02*
Y028958D01*
X050830Y029018*
X050890Y028958*
Y028838*
Y028928*
X050770*
X050950Y028838D02*
Y029018D01*
X051040*
X051070Y028988*
Y028928*
X051040Y028898*
X050950*
X051250Y028988D02*
X051220Y029018D01*
X051160*
X051130Y028988*
Y028958*
X051160Y028928*
X051220*
X051250Y028898*
Y028868*
X051220Y028838*
X051160*
X051130Y028868*
X051310Y029018D02*
Y028838D01*
X051429*
X051609Y029018D02*
X051489D01*
Y028838*
X051609*
X051489Y028928D02*
X051549D01*
X051669Y029018D02*
Y028838D01*
X051759*
X051789Y028868*
Y028988*
X051759Y029018*
X051669*
X050590Y028231D02*
Y028051D01*
X050650Y028111*
X050710Y028051*
Y028231*
X050770Y028021D02*
X050890D01*
X051040Y028231D02*
X050980D01*
X050950Y028201*
Y028081*
X050980Y028051*
X051040*
X051070Y028081*
Y028201*
X051040Y028231*
X051130Y028051D02*
Y028231D01*
X051250Y028051*
Y028231*
X050590Y027353D02*
X050710D01*
X050650Y027413D02*
Y027293D01*
X050770Y027413D02*
X050800Y027443D01*
X050860*
X050890Y027413*
Y027383*
X050860Y027353*
X050830*
X050860*
X050890Y027323*
Y027293*
X050860Y027263*
X050800*
X050770Y027293*
X050950Y027443D02*
Y027323D01*
X051010Y027263*
X051070Y027323*
Y027443*
X042749Y032565D02*
X042716Y032598D01*
X042650*
X042618Y032565*
Y032434*
X042650Y032401*
X042716*
X042749Y032434*
Y032500*
X042683*
X042814Y032401D02*
Y032598D01*
X042946Y032401*
Y032598*
X043011D02*
Y032401D01*
X043110*
X043142Y032434*
Y032565*
X043110Y032598*
X043011*
G54D21*
X043622Y027657D02*
Y027460D01*
X043769*
Y027559*
Y027460*
X043917*
X043622Y027952D02*
Y027755D01*
X043769*
Y027854*
Y027755*
X043917*
X043671Y028247D02*
X043622Y028198D01*
Y028100*
X043671Y028051*
X043868*
X043917Y028100*
Y028198*
X043868Y028247*
X043622Y028641D02*
X043917D01*
Y028788*
X043868Y028838*
X043818*
X043769Y028788*
Y028641*
Y028788*
X043720Y028838*
X043671*
X043622Y028788*
Y028641*
X043720Y028936D02*
X043917D01*
X043818*
X043769Y028985*
X043720Y029034*
Y029084*
X043917Y029379D02*
Y029280D01*
X043868Y029231*
X043769*
X043720Y029280*
Y029379*
X043769Y029428*
X043818*
Y029231*
X043720Y029576D02*
Y029674D01*
X043769Y029723*
X043917*
Y029576*
X043868Y029526*
X043818Y029576*
Y029723*
X043917Y029822D02*
X043622D01*
X043818D02*
X043720Y029969D01*
X043818Y029822D02*
X043917Y029969D01*
Y030166D02*
Y030264D01*
X043868Y030314*
X043769*
X043720Y030264*
Y030166*
X043769Y030117*
X043868*
X043917Y030166*
X043720Y030412D02*
X043868D01*
X043917Y030461*
Y030609*
X043720*
X043671Y030756D02*
X043720D01*
Y030707*
Y030806*
Y030756*
X043868*
X043917Y030806*
M02*